<?xml version="1.0" encoding="UTF-8" standalone="no"?>
<!DOCTYPE svg PUBLIC "-//W3C//DTD SVG 1.1//EN"
 "http://www.w3.org/Graphics/SVG/1.1/DTD/svg11.dtd">
<!-- Generated by graphviz version 2.43.20190912.0211 (20190912.0211)
 -->
<!-- Title: eco_cone Pages: 1 -->
<svg width="2020pt" height="152pt"
 viewBox="0.00 0.00 2020.00 152.00" xmlns="http://www.w3.org/2000/svg" xmlns:xlink="http://www.w3.org/1999/xlink">
<g id="graph0" class="graph" transform="scale(1 1) rotate(0) translate(4 148)">
<title>eco_cone</title>
<polygon fill="white" stroke="transparent" points="-4,4 -4,-148 2016,-148 2016,4 -4,4"/>
<!-- $logic_not$/workspace/incremental&#45;synthesis/benchmarks/riscv&#45;eco&#45;001&#45;new/core/common/control_transfer.sv:17$24 -->
<g id="node1" class="node">
<title>$logic_not$/workspace/incremental&#45;synthesis/benchmarks/riscv&#45;eco&#45;001&#45;new/core/common/control_transfer.sv:17$24</title>
<polygon fill="none" stroke="black" points="938,-144 0,-144 0,-108 938,-108 938,-144"/>
<text text-anchor="middle" x="469" y="-122.3" font-family="Times,serif" font-size="14.00">$logic_not$/workspace/incremental&#45;synthesis/benchmarks/riscv&#45;eco&#45;001&#45;new/core/common/control_transfer.sv:17$24\n$logic_not</text>
</g>
<!-- $procmux$283 -->
<g id="node4" class="node">
<title>$procmux$283</title>
<polygon fill="none" stroke="black" points="2012,-90 1826,-90 1826,-54 2012,-54 2012,-90"/>
<text text-anchor="middle" x="1919" y="-68.3" font-family="Times,serif" font-size="14.00">$procmux$283\n$pmux</text>
</g>
<!-- $logic_not$/workspace/incremental&#45;synthesis/benchmarks/riscv&#45;eco&#45;001&#45;new/core/common/control_transfer.sv:17$24&#45;&gt;$procmux$283 -->
<g id="edge1" class="edge">
<title>$logic_not$/workspace/incremental&#45;synthesis/benchmarks/riscv&#45;eco&#45;001&#45;new/core/common/control_transfer.sv:17$24&#45;&gt;$procmux$283</title>
<path fill="none" stroke="black" d="M938.15,-130.33C1195.45,-128.54 1519.96,-119.49 1808,-91 1810.53,-90.75 1813.09,-90.47 1815.67,-90.18"/>
<polygon fill="black" stroke="black" points="1816.21,-93.64 1825.71,-88.94 1815.35,-86.69 1816.21,-93.64"/>
<text text-anchor="middle" x="1382" y="-132.8" font-family="Times,serif" font-size="14.00">$logic_not$/workspace/incremental&#45;synthesis/benchmarks/riscv&#45;eco&#45;001&#45;new/core/common/control_transfer.sv:17$24_Y</text>
</g>
<!-- $logic_not$/workspace/incremental&#45;synthesis/benchmarks/riscv&#45;eco&#45;001&#45;new/core/common/control_transfer.sv:19$25 -->
<g id="node2" class="node">
<title>$logic_not$/workspace/incremental&#45;synthesis/benchmarks/riscv&#45;eco&#45;001&#45;new/core/common/control_transfer.sv:19$25</title>
<polygon fill="none" stroke="black" points="938,-90 0,-90 0,-54 938,-54 938,-90"/>
<text text-anchor="middle" x="469" y="-68.3" font-family="Times,serif" font-size="14.00">$logic_not$/workspace/incremental&#45;synthesis/benchmarks/riscv&#45;eco&#45;001&#45;new/core/common/control_transfer.sv:19$25\n$logic_not</text>
</g>
<!-- $logic_not$/workspace/incremental&#45;synthesis/benchmarks/riscv&#45;eco&#45;001&#45;new/core/common/control_transfer.sv:19$25&#45;&gt;$procmux$283 -->
<g id="edge2" class="edge">
<title>$logic_not$/workspace/incremental&#45;synthesis/benchmarks/riscv&#45;eco&#45;001&#45;new/core/common/control_transfer.sv:19$25&#45;&gt;$procmux$283</title>
<path fill="none" stroke="black" d="M938.12,-72C1250.34,-72 1635.41,-72 1815.75,-72"/>
<polygon fill="black" stroke="black" points="1815.76,-75.5 1825.76,-72 1815.76,-68.5 1815.76,-75.5"/>
<text text-anchor="middle" x="1382" y="-75.8" font-family="Times,serif" font-size="14.00">$logic_not$/workspace/incremental&#45;synthesis/benchmarks/riscv&#45;eco&#45;001&#45;new/core/common/control_transfer.sv:19$25_Y</text>
</g>
<!-- $logic_not$/workspace/incremental&#45;synthesis/benchmarks/riscv&#45;eco&#45;001&#45;new/core/common/control_transfer.sv:21$26 -->
<g id="node3" class="node">
<title>$logic_not$/workspace/incremental&#45;synthesis/benchmarks/riscv&#45;eco&#45;001&#45;new/core/common/control_transfer.sv:21$26</title>
<polygon fill="none" stroke="black" points="938,-36 0,-36 0,0 938,0 938,-36"/>
<text text-anchor="middle" x="469" y="-14.3" font-family="Times,serif" font-size="14.00">$logic_not$/workspace/incremental&#45;synthesis/benchmarks/riscv&#45;eco&#45;001&#45;new/core/common/control_transfer.sv:21$26\n$logic_not</text>
</g>
<!-- $logic_not$/workspace/incremental&#45;synthesis/benchmarks/riscv&#45;eco&#45;001&#45;new/core/common/control_transfer.sv:21$26&#45;&gt;$procmux$283 -->
<g id="edge3" class="edge">
<title>$logic_not$/workspace/incremental&#45;synthesis/benchmarks/riscv&#45;eco&#45;001&#45;new/core/common/control_transfer.sv:21$26&#45;&gt;$procmux$283</title>
<path fill="none" stroke="black" d="M938.15,-13.67C1195.45,-15.46 1519.96,-24.51 1808,-53 1810.53,-53.25 1813.09,-53.53 1815.67,-53.82"/>
<polygon fill="black" stroke="black" points="1815.35,-57.31 1825.71,-55.06 1816.21,-50.36 1815.35,-57.31"/>
<text text-anchor="middle" x="1382" y="-56.8" font-family="Times,serif" font-size="14.00">$logic_not$/workspace/incremental&#45;synthesis/benchmarks/riscv&#45;eco&#45;001&#45;new/core/common/control_transfer.sv:21$26_Y</text>
</g>
</g>
</svg>
